<?xml version="1.0" standalone="no"?>
<!DOCTYPE svg PUBLIC "-//W3C//DTD SVG 20010904//EN"
 "http://www.w3.org/TR/2001/REC-SVG-20010904/DTD/svg10.dtd">
<svg version="1.0" xmlns="http://www.w3.org/2000/svg"
 width="792.000000pt" height="792.000000pt" viewBox="0 0 792.000000 792.000000"
 preserveAspectRatio="xMidYMid meet">
<metadata>
Created by potrace 1.11, written by Peter Selinger 2001-2013
</metadata>
<g transform="translate(0.000000,792.000000) scale(0.100000,-0.100000)"
fill="#000000" stroke="none">
<path d="M4814 7738 c3 -24 7 -54 10 -68 3 -14 7 -47 11 -75 11 -89 22 -158
69 -425 12 -69 32 -223 43 -340 9 -106 10 -549 1 -610 -4 -25 -7 -51 -7 -58
-1 -13 -47 -12 -126 3 -77 15 -250 50 -295 60 -14 3 -34 7 -45 9 -19 4 -352
83 -385 91 -102 26 -476 101 -549 110 -30 4 -61 8 -70 10 -15 3 -87 11 -180
21 -53 5 -282 5 -311 0 -14 -3 -41 -7 -60 -10 -177 -27 -270 -66 -310 -131
-18 -29 -50 -144 -201 -725 -22 -85 -54 -206 -70 -269 -17 -63 -32 -137 -34
-165 -8 -93 40 -132 155 -123 95 7 131 42 190 182 76 181 195 393 239 424 62
45 205 43 546 -5 22 -4 54 -7 70 -9 17 -2 66 -8 110 -14 44 -7 98 -14 120 -17
22 -3 51 -7 65 -9 14 -2 70 -9 125 -15 55 -6 111 -13 125 -15 14 -2 62 -7 107
-10 45 -3 90 -7 100 -9 31 -6 276 -25 413 -31 30 -2 56 -3 58 -4 2 -1 -10 -20
-26 -43 -15 -24 -50 -81 -76 -128 -53 -94 -120 -188 -147 -208 -10 -7 -72 -76
-137 -155 -178 -212 -228 -258 -411 -381 l-114 -76 -19 30 c-20 34 -44 39 -52
12 -8 -25 -79 -63 -118 -64 -45 -2 -74 36 -83 107 -11 95 -15 109 -34 135 -44
61 -153 28 -353 -107 -173 -116 -318 -259 -528 -518 -169 -209 -340 -384 -437
-446 -91 -57 -234 -80 -299 -46 -22 11 -34 13 -49 4 -40 -22 -136 -134 -167
-196 -29 -58 -33 -74 -33 -145 0 -71 4 -87 28 -126 50 -81 59 -110 53 -165 -3
-28 -8 -60 -11 -71 -11 -32 93 88 117 136 13 25 24 47 25 49 1 2 14 -10 28
-27 38 -46 115 -79 188 -81 93 -2 174 46 114 68 -21 8 -25 18 -30 68 -3 32 -8
69 -11 81 -4 20 -2 23 12 17 118 -49 197 -58 271 -31 79 29 92 55 40 81 -17 9
-29 18 -27 20 12 11 102 10 124 -1 34 -18 44 -18 44 2 0 32 92 -23 140 -83 52
-66 5 -210 -121 -368 -62 -79 -159 -231 -159 -251 0 -12 -1 -13 -150 -174
-112 -121 -139 -152 -206 -236 -27 -34 -78 -94 -114 -134 -137 -154 -160 -196
-146 -281 11 -66 57 -172 87 -201 47 -45 83 -35 192 52 107 87 253 147 444
183 57 11 76 11 95 1 23 -12 42 -9 33 6 -3 4 8 10 24 12 26 4 34 -2 60 -39 32
-45 61 -61 121 -69 19 -2 51 -6 70 -9 19 -3 89 -6 155 -7 133 -2 170 7 220 54
l31 28 127 -25 c119 -23 195 -40 457 -102 58 -14 112 -26 120 -28 8 -2 100
-25 204 -50 105 -26 197 -48 205 -50 9 -2 48 -11 86 -20 39 -9 81 -18 95 -20
73 -10 119 -16 155 -20 52 -6 352 -6 385 -1 14 3 48 7 75 11 28 3 70 11 95 16
25 6 52 12 61 14 59 12 167 50 183 63 28 26 45 64 62 144 8 40 17 82 20 93 2
11 7 33 10 49 2 16 18 93 34 170 16 78 32 155 35 173 3 17 16 82 29 145 14 62
27 124 30 138 2 14 16 79 30 145 14 66 27 131 30 145 3 14 7 36 10 50 35 159
34 203 -3 241 -27 27 -35 29 -106 29 -123 0 -168 -32 -215 -150 -29 -73 -120
-321 -125 -340 -2 -8 -23 -65 -46 -126 -44 -119 -44 -119 -134 -149 -104 -35
-321 -48 -516 -32 -88 8 -97 9 -186 28 -48 9 -74 29 -39 29 33 0 23 20 -19 39
-25 11 -45 23 -45 27 0 4 36 4 80 1 l79 -6 43 43 c70 70 186 296 152 296 -3 0
-36 -18 -72 -40 -112 -66 -183 -83 -347 -83 -148 -1 -249 24 -485 119 -86 35
-104 39 -185 39 -80 -1 -156 -7 -235 -20 -25 -4 -265 -54 -280 -58 -4 -1 -10
3 -12 8 -3 9 118 49 182 60 221 39 392 54 679 60 112 2 224 6 250 9 25 3 80 8
121 11 41 3 91 8 110 10 19 2 60 7 90 10 101 11 185 26 193 34 5 5 -3 25 -17
46 -14 21 -26 42 -26 47 0 5 30 -12 66 -38 l66 -47 41 23 c23 13 83 48 132 78
158 96 193 132 143 148 -58 17 -52 29 17 34 l68 5 43 64 c54 78 55 91 10 87
-18 -2 -40 0 -47 5 -11 7 -11 9 -1 9 7 0 33 14 57 30 40 27 53 49 124 193 82
167 116 255 132 342 5 27 11 61 14 75 12 57 18 190 8 190 -6 0 -24 -21 -41
-47 -78 -121 -170 -227 -267 -308 -33 -27 -62 -52 -65 -55 -13 -14 -192 -142
-244 -175 -127 -81 -347 -161 -551 -201 -11 -2 -31 -6 -45 -9 -56 -12 -77 -16
-115 -21 -71 -10 -377 -73 -480 -99 -185 -47 -370 -96 -427 -114 -54 -16 -57
-16 -43 -1 31 35 243 117 348 135 15 3 96 21 180 40 84 20 163 38 177 41 14 3
30 6 35 8 6 1 37 8 70 15 119 26 315 78 430 116 184 60 353 138 474 220 65 43
161 125 161 136 0 3 -22 16 -50 29 -65 30 -64 42 3 24 28 -7 59 -14 68 -14 20
0 100 75 166 155 48 58 163 239 163 257 0 4 -9 9 -20 9 -11 1 -24 3 -30 4 -5
1 -19 3 -30 4 -42 2 -18 19 38 25 83 10 90 14 115 54 26 42 99 232 96 252 0 3
4 18 10 33 6 15 13 40 16 55 3 15 7 38 11 52 9 42 17 230 9 230 -4 0 -24 -13
-45 -30 -21 -16 -40 -30 -43 -30 -3 0 10 28 29 63 18 34 39 73 46 87 32 65 10
286 -45 449 l-23 69 30 33 c16 19 45 52 66 74 161 176 187 211 200 276 6 35
13 71 15 79 2 8 12 54 24 101 12 48 21 95 21 106 0 22 -91 119 -120 128 -28 9
-47 -5 -167 -122 -97 -95 -168 -144 -233 -163 -27 -8 -30 -6 -31 13 -1 24 -6
60 -14 96 -7 26 -1 27 -124 -18 -46 -17 -90 -31 -97 -31 -8 0 29 39 81 88 61
57 95 94 95 108 0 12 -27 100 -61 195 -33 96 -65 185 -69 199 -29 90 -111 313
-129 350 -12 25 -54 86 -94 136 -39 50 -115 162 -167 249 -109 182 -134 215
-162 215 -18 0 -19 -5 -14 -42z m819 -2240 c-13 -72 -76 -247 -110 -308 -68
-123 -213 -330 -322 -459 -136 -161 -419 -405 -571 -494 -25 -14 -85 -43 -135
-65 -49 -22 -137 -62 -195 -89 -146 -70 -191 -90 -278 -125 -43 -17 -81 -33
-87 -36 -7 -3 -7 -1 0 6 16 17 143 85 220 117 82 34 132 63 270 153 197 129
306 216 465 375 192 191 257 273 401 504 20 32 62 99 93 148 30 50 79 115 106
145 28 30 72 79 98 108 26 28 48 52 49 52 1 0 0 -15 -4 -32z"/>
</g>
</svg>
